<svg xmlns="http://www.w3.org/2000/svg" viewBox="0 0 512 512" role="img" aria-label="C sign">
  <rect width="512" height="512" fill="#fff"/>
  <rect x="22" y="22" width="468" height="468" rx="28" fill="none" stroke="#111" stroke-width="18"/>
  <g fill="#111">
    <circle cx="145" cy="155" r="28"/>
    <rect x="118" y="195" width="54" height="140" rx="22"/>
    <rect x="106" y="228" width="26" height="115" rx="12"/>
    <rect x="158" y="228" width="26" height="115" rx="12"/>
    <rect x="124" y="326" width="18" height="90" rx="9"/>
    <rect x="148" y="326" width="18" height="90" rx="9"/>
  </g>
  <g transform="translate(250 90)" fill="none" stroke="#111" stroke-width="14" stroke-linejoin="round">
    <polygon points="30,20 190,50 165,395 5,360"/>
    <line x1="62" y1="72" x2="92" y2="48"/>
    <line x1="142" y1="103" x2="169" y2="82"/>
  </g>
  <g transform="translate(303 170)" fill="#111">
    <circle cx="58" cy="30" r="22"/>
    <rect x="36" y="60" width="44" height="112" rx="18"/>
    <rect x="28" y="84" width="18" height="88" rx="9"/>
    <rect x="70" y="84" width="18" height="88" rx="9"/>
    <rect x="41" y="164" width="15" height="70" rx="7"/>
    <rect x="61" y="164" width="15" height="70" rx="7"/>
  </g>
</svg>
