<svg xmlns="http://www.w3.org/2000/svg" viewBox="0 0 1200 760" role="img" aria-label="A full room">
  <rect width="1200" height="760" fill="#f4f4f1"/>
  <rect x="90" y="70" width="1020" height="560" fill="#eeeeeb" stroke="#1b1b1b" stroke-width="3"/>
  <line x1="90" y1="630" x2="1110" y2="630" stroke="#1b1b1b" stroke-width="3"/>
  <line x1="90" y1="70" x2="230" y2="210" stroke="#b7b7b2" stroke-width="2"/>
  <line x1="1110" y1="70" x2="970" y2="210" stroke="#b7b7b2" stroke-width="2"/>
  <g fill="#ffffff" stroke="#c7c7c0" stroke-width="2">
    <rect x="220" y="110" width="70" height="18" rx="4"/>
    <rect x="390" y="110" width="70" height="18" rx="4"/>
    <rect x="560" y="110" width="70" height="18" rx="4"/>
    <rect x="730" y="110" width="70" height="18" rx="4"/>
    <rect x="900" y="110" width="70" height="18" rx="4"/>
    <rect x="280" y="165" width="70" height="18" rx="4"/>
    <rect x="450" y="165" width="70" height="18" rx="4"/>
    <rect x="620" y="165" width="70" height="18" rx="4"/>
    <rect x="790" y="165" width="70" height="18" rx="4"/>
  </g>
  <g transform="translate(520 405)">
    <rect x="0" y="0" width="96" height="135" fill="#d9d9d5" stroke="#111" stroke-width="3"/>
    <line x1="48" y1="0" x2="48" y2="135" stroke="#777" stroke-width="2"/>
    <rect x="28" y="-22" width="40" height="12" fill="#111"/>
  </g>
  <rect x="495" y="560" width="150" height="46" fill="none" stroke="#111" stroke-width="3"/>
  <g transform="translate(650 410) scale(.34)" stroke="#111" stroke-width="8" fill="none">
    <rect x="0" y="0" width="70" height="70"/><rect x="82" y="0" width="70" height="70"/>
    <rect x="0" y="82" width="70" height="70"/><rect x="82" y="82" width="70" height="70"/>
  </g>
</svg>
