<svg xmlns="http://www.w3.org/2000/svg" viewBox="0 0 1200 760" role="img" aria-label="B elevator area">
  <rect width="1200" height="760" fill="#f4f4f1"/>
  <rect x="0" y="0" width="1200" height="760" fill="#eeeeeb"/>
  <line x1="0" y1="620" x2="1200" y2="620" stroke="#222" stroke-width="3"/>
  <g transform="translate(350 210)">
    <rect x="0" y="0" width="260" height="350" fill="#d6d6d2" stroke="#111" stroke-width="6"/>
    <line x1="130" y1="0" x2="130" y2="350" stroke="#777" stroke-width="3"/>
    <rect x="88" y="-48" width="84" height="28" fill="#111"/>
    <polygon points="111,-40 101,-26 121,-26" fill="#fff"/>
    <polygon points="149,-26 139,-40 159,-40" fill="#fff"/>
  </g>
  <rect x="300" y="610" width="360" height="90" fill="none" stroke="#111" stroke-width="5"/>
  <g transform="translate(720 230)" stroke="#111" stroke-width="5" fill="none">
    <rect x="0" y="0" width="120" height="120" rx="8"/>
    <rect x="140" y="0" width="120" height="120" rx="8"/>
    <rect x="0" y="140" width="120" height="120" rx="8"/>
    <rect x="140" y="140" width="120" height="120" rx="8"/>
    <g fill="#111" stroke="none">
      <circle cx="44" cy="35" r="10"/><rect x="34" y="48" width="20" height="48" rx="8"/>
      <rect x="170" y="44" width="42" height="54" stroke="#111" fill="none" stroke-width="5"/><circle cx="202" cy="55" r="7"/><rect x="196" y="64" width="12" height="28" rx="5"/>
      <circle cx="43" cy="190" r="18"/><path d="M70 188 q18 14 0 28" fill="none" stroke="#111" stroke-width="8"/>
      <circle cx="190" cy="175" r="10"/><rect x="180" y="188" width="20" height="48" rx="8"/>
    </g>
  </g>
</svg>
